<svg xmlns="http://www.w3.org/2000/svg" viewBox="0 0 512 512">
  <defs>
    <linearGradient id="bg" x1="0%" y1="0%" x2="100%" y2="100%">
      <stop offset="0%" style="stop-color:#6366f1"/>
      <stop offset="100%" style="stop-color:#8b5cf6"/>
    </linearGradient>
  </defs>
  <rect width="512" height="512" rx="96" fill="url(#bg)"/>
  <g transform="translate(256,240)">
    <path d="M0-120c-33.1 0-60 26.9-60 60v80c0 33.1 26.9 60 60 60s60-26.9 60-60v-80c0-33.1-26.9-60-60-60z" fill="none" stroke="white" stroke-width="28"/>
    <path d="M-100 0c0 55.2 44.8 100 100 100s100-44.8 100-100" fill="none" stroke="white" stroke-width="28" stroke-linecap="round"/>
    <line x1="0" y1="100" x2="0" y2="150" stroke="white" stroke-width="28" stroke-linecap="round"/>
    <line x1="-40" y1="150" x2="40" y2="150" stroke="white" stroke-width="28" stroke-linecap="round"/>
    <path d="M84-84c20 20 20 68 0 84" fill="none" stroke="rgba(255,255,255,0.6)" stroke-width="18" stroke-linecap="round"/>
    <path d="M116-116c35 35 35 119 0 148" fill="none" stroke="rgba(255,255,255,0.3)" stroke-width="18" stroke-linecap="round"/>
  </g>
</svg>